# xmcd CD database file
#
# Track frame offsets:
#	150
#	25868
#	60232
#	77761
#	103850
#	142798
#	156811
#	191387
#	208458
#	251033
#
# Disc length: 3924 seconds
#
# Revision: 0
# Processed by: cddbd v1.4PL0 Copyright (c) Steve Scherf et al.
# Submitted via: CDex 1.50beta10
#
DISCID=810f520a
DTITLE=Dhafer Youssef - Digital Prophecy
DYEAR=2003
DGENRE=Jazz
TTITLE0=Diaphnes
TTITLE1=Aya
TTITLE2=Dawn Prayer
TTITLE3=Sparkling Truth
TTITLE4=Ysamy
TTITLE5=Holy Breath
TTITLE6=Seven Heaven Suite
TTITLE7=Wood Talk
TTITLE8=Holy Lie
TTITLE9=Flowing Water
EXTD=YEAR: 2003
EXTT0=
EXTT1=
EXTT2=
EXTT3=
EXTT4=
EXTT5=
EXTT6=
EXTT7=
EXTT8=
EXTT9=
PLAYORDER=
